<svg width="600" height="400" viewBox="0 0 600 400" fill="none" xmlns="http://www.w3.org/2000/svg">
  <rect x="80" y="80" width="440" height="240" rx="32" fill="#FA2C55" />
  <path d="M260 140V256C260 274.225 244.225 290 226 290C207.775 290 192 274.225 192 256C192 237.775 207.775 222 226 222C229.962 222 233.736 222.674 237.2 223.944V140H260Z" fill="#fff" />
  <path d="M360 120V236C360 254.225 344.225 270 326 270C307.775 270 292 254.225 292 236C292 217.775 307.775 202 326 202C329.962 202 333.736 202.674 337.2 203.944V120H360Z" fill="#fff" />
  <text x="50%" y="340" text-anchor="middle" fill="#fff" font-family="'SF Pro Display', 'Helvetica Neue', Arial" font-size="36" font-weight="600">Apple Music</text>
</svg>
